<mxfile host="app.diagrams.net" agent="Mozilla/5.0 (Windows NT 10.0; Win64; x64) AppleWebKit/537.36 (KHTML, like Gecko) Chrome/128.0.0.0 Safari/537.36" version="24.9.3">
  <diagram name="Page-1" id="HCXtLOHnEH5D50suYZMZ">
    <mxGraphModel dx="2388" dy="1432" grid="0" gridSize="10" guides="1" tooltips="1" connect="1" arrows="1" fold="1" page="1" pageScale="1" pageWidth="1600" pageHeight="600" background="none" math="0" shadow="0">
      <root>
        <mxCell id="0" />
        <mxCell id="1" parent="0" />
        <mxCell id="IIGgRlWlPwrDrrDaBenJ-39" style="edgeStyle=orthogonalEdgeStyle;rounded=0;orthogonalLoop=1;jettySize=auto;html=1;exitX=1;exitY=0.5;exitDx=0;exitDy=0;entryX=0;entryY=0.5;entryDx=0;entryDy=0;" parent="1" source="IIGgRlWlPwrDrrDaBenJ-1" target="IIGgRlWlPwrDrrDaBenJ-2" edge="1">
          <mxGeometry relative="1" as="geometry" />
        </mxCell>
        <mxCell id="Kvdl1e2YpWBnPpMMYwDb-14" style="edgeStyle=orthogonalEdgeStyle;rounded=0;orthogonalLoop=1;jettySize=auto;html=1;exitX=0.5;exitY=1;exitDx=0;exitDy=0;entryX=0.5;entryY=0;entryDx=0;entryDy=0;" parent="1" source="IIGgRlWlPwrDrrDaBenJ-1" target="Kvdl1e2YpWBnPpMMYwDb-10" edge="1">
          <mxGeometry relative="1" as="geometry" />
        </mxCell>
        <mxCell id="IIGgRlWlPwrDrrDaBenJ-1" value="&lt;span style=&quot;font-size: 20px;&quot;&gt;Importing samples from dataset&lt;/span&gt;&lt;div style=&quot;font-size: 20px;&quot;&gt;&lt;span style=&quot;font-size: 20px;&quot;&gt;(Random images from each class about 1k total)&lt;/span&gt;&lt;/div&gt;" style="rounded=0;whiteSpace=wrap;html=1;fillColor=#60a917;fontColor=#ffffff;strokeColor=#2D7600;fontStyle=1;fontSize=20;" parent="1" vertex="1">
          <mxGeometry x="15" y="37" width="190" height="180" as="geometry" />
        </mxCell>
        <mxCell id="IIGgRlWlPwrDrrDaBenJ-40" style="edgeStyle=orthogonalEdgeStyle;rounded=0;orthogonalLoop=1;jettySize=auto;html=1;exitX=1;exitY=0.5;exitDx=0;exitDy=0;entryX=0;entryY=0.5;entryDx=0;entryDy=0;" parent="1" source="IIGgRlWlPwrDrrDaBenJ-2" target="IIGgRlWlPwrDrrDaBenJ-4" edge="1">
          <mxGeometry relative="1" as="geometry" />
        </mxCell>
        <mxCell id="IIGgRlWlPwrDrrDaBenJ-2" value="Apply Low contrast techniques (Make it more lighter, gray or darker)" style="rounded=0;whiteSpace=wrap;html=1;fillColor=#1ba1e2;fontColor=#ffffff;strokeColor=#006EAF;fontStyle=1;fontSize=20;" parent="1" vertex="1">
          <mxGeometry x="300" y="36" width="190" height="180" as="geometry" />
        </mxCell>
        <mxCell id="Kvdl1e2YpWBnPpMMYwDb-1" style="edgeStyle=orthogonalEdgeStyle;rounded=0;orthogonalLoop=1;jettySize=auto;html=1;exitX=1;exitY=0.5;exitDx=0;exitDy=0;" parent="1" source="IIGgRlWlPwrDrrDaBenJ-4" edge="1">
          <mxGeometry relative="1" as="geometry">
            <mxPoint x="826.3333333333333" y="127" as="targetPoint" />
          </mxGeometry>
        </mxCell>
        <mxCell id="IIGgRlWlPwrDrrDaBenJ-4" value="&lt;span style=&quot;font-size: 20px;&quot;&gt;Adding random noises&lt;/span&gt;" style="rounded=0;whiteSpace=wrap;html=1;fillColor=#1ba1e2;fontColor=#ffffff;strokeColor=#006EAF;fontStyle=1;fontSize=20;" parent="1" vertex="1">
          <mxGeometry x="564" y="37" width="190" height="180" as="geometry" />
        </mxCell>
        <mxCell id="IIGgRlWlPwrDrrDaBenJ-42" style="edgeStyle=orthogonalEdgeStyle;rounded=0;orthogonalLoop=1;jettySize=auto;html=1;exitX=1;exitY=0.5;exitDx=0;exitDy=0;entryX=0;entryY=0.5;entryDx=0;entryDy=0;" parent="1" edge="1">
          <mxGeometry relative="1" as="geometry">
            <mxPoint x="974" y="128" as="sourcePoint" />
            <mxPoint x="1053" y="128" as="targetPoint" />
          </mxGeometry>
        </mxCell>
        <mxCell id="JLH1EfQF-wIh-_djJ6uE-1" style="edgeStyle=orthogonalEdgeStyle;rounded=0;orthogonalLoop=1;jettySize=auto;html=1;exitX=1;exitY=0.5;exitDx=0;exitDy=0;entryX=1;entryY=0.5;entryDx=0;entryDy=0;" edge="1" parent="1" source="IIGgRlWlPwrDrrDaBenJ-9" target="Kvdl1e2YpWBnPpMMYwDb-3">
          <mxGeometry relative="1" as="geometry" />
        </mxCell>
        <mxCell id="IIGgRlWlPwrDrrDaBenJ-9" value="Apply Bilateral Filter" style="rounded=0;whiteSpace=wrap;html=1;fillColor=#1ba1e2;fontColor=#ffffff;strokeColor=#006EAF;fontStyle=1;fontSize=20;" parent="1" vertex="1">
          <mxGeometry x="1355" y="35" width="190" height="180" as="geometry" />
        </mxCell>
        <mxCell id="IIGgRlWlPwrDrrDaBenJ-43" style="edgeStyle=orthogonalEdgeStyle;rounded=0;orthogonalLoop=1;jettySize=auto;html=1;exitX=1;exitY=0.5;exitDx=0;exitDy=0;entryX=0;entryY=0.5;entryDx=0;entryDy=0;" parent="1" source="IIGgRlWlPwrDrrDaBenJ-15" target="IIGgRlWlPwrDrrDaBenJ-9" edge="1">
          <mxGeometry relative="1" as="geometry" />
        </mxCell>
        <mxCell id="IIGgRlWlPwrDrrDaBenJ-15" value="&lt;div&gt;Apply Median Filter&lt;/div&gt;" style="rounded=0;whiteSpace=wrap;html=1;fillColor=#1ba1e2;fontColor=#ffffff;strokeColor=#006EAF;fontStyle=1;fontSize=20;" parent="1" vertex="1">
          <mxGeometry x="1056" y="36" width="190" height="180" as="geometry" />
        </mxCell>
        <mxCell id="Kvdl1e2YpWBnPpMMYwDb-2" value="&lt;font style=&quot;font-size: 21px;&quot;&gt;&lt;b style=&quot;&quot;&gt;Noisy Images&lt;/b&gt;&lt;/font&gt;" style="text;html=1;align=center;verticalAlign=middle;whiteSpace=wrap;rounded=0;" parent="1" vertex="1">
          <mxGeometry x="829" y="112" width="143" height="30" as="geometry" />
        </mxCell>
        <mxCell id="Kvdl1e2YpWBnPpMMYwDb-9" style="edgeStyle=orthogonalEdgeStyle;rounded=0;orthogonalLoop=1;jettySize=auto;html=1;exitX=0;exitY=0.5;exitDx=0;exitDy=0;entryX=1;entryY=0.5;entryDx=0;entryDy=0;" parent="1" source="Kvdl1e2YpWBnPpMMYwDb-3" target="Kvdl1e2YpWBnPpMMYwDb-4" edge="1">
          <mxGeometry relative="1" as="geometry" />
        </mxCell>
        <mxCell id="Kvdl1e2YpWBnPpMMYwDb-3" value="Apply Gaussian Filter" style="rounded=0;whiteSpace=wrap;html=1;fillColor=#1ba1e2;fontColor=#ffffff;strokeColor=#006EAF;fontStyle=1;fontSize=20;" parent="1" vertex="1">
          <mxGeometry x="1355" y="387" width="190" height="180" as="geometry" />
        </mxCell>
        <mxCell id="Kvdl1e2YpWBnPpMMYwDb-8" style="edgeStyle=orthogonalEdgeStyle;rounded=0;orthogonalLoop=1;jettySize=auto;html=1;exitX=0;exitY=0.5;exitDx=0;exitDy=0;entryX=1;entryY=0.5;entryDx=0;entryDy=0;" parent="1" source="Kvdl1e2YpWBnPpMMYwDb-4" target="Kvdl1e2YpWBnPpMMYwDb-5" edge="1">
          <mxGeometry relative="1" as="geometry" />
        </mxCell>
        <mxCell id="Kvdl1e2YpWBnPpMMYwDb-4" value="Apply Histogram equalization" style="rounded=0;whiteSpace=wrap;html=1;fillColor=#1ba1e2;fontColor=#ffffff;strokeColor=#006EAF;fontStyle=1;fontSize=20;" parent="1" vertex="1">
          <mxGeometry x="1056" y="387" width="190" height="180" as="geometry" />
        </mxCell>
        <mxCell id="Kvdl1e2YpWBnPpMMYwDb-7" style="edgeStyle=orthogonalEdgeStyle;rounded=0;orthogonalLoop=1;jettySize=auto;html=1;exitX=0;exitY=0.5;exitDx=0;exitDy=0;" parent="1" source="Kvdl1e2YpWBnPpMMYwDb-5" edge="1">
          <mxGeometry relative="1" as="geometry">
            <mxPoint x="718.3846153846152" y="476.8461538461538" as="targetPoint" />
          </mxGeometry>
        </mxCell>
        <mxCell id="Kvdl1e2YpWBnPpMMYwDb-5" value="Apply&amp;nbsp;&lt;b&gt;&lt;span style=&quot;font-size:16.0pt;line-height:107%;&lt;br/&gt;font-family:&amp;quot;Times New Roman&amp;quot;,serif;mso-ascii-theme-font:major-bidi;mso-fareast-font-family:&lt;br/&gt;Calibri;mso-fareast-theme-font:minor-latin;mso-hansi-theme-font:major-bidi;&lt;br/&gt;mso-bidi-theme-font:major-bidi;mso-ansi-language:EN-US;mso-fareast-language:&lt;br/&gt;EN-US;mso-bidi-language:AR-SA&quot;&gt;Skull stripping&lt;/span&gt;&lt;/b&gt;" style="rounded=0;whiteSpace=wrap;html=1;fillColor=#1ba1e2;fontColor=#ffffff;strokeColor=#006EAF;fontStyle=1;fontSize=20;" parent="1" vertex="1">
          <mxGeometry x="790" y="387" width="190" height="180" as="geometry" />
        </mxCell>
        <mxCell id="Kvdl1e2YpWBnPpMMYwDb-13" style="edgeStyle=orthogonalEdgeStyle;rounded=0;orthogonalLoop=1;jettySize=auto;html=1;exitX=0;exitY=0.5;exitDx=0;exitDy=0;entryX=1;entryY=0.5;entryDx=0;entryDy=0;" parent="1" source="Kvdl1e2YpWBnPpMMYwDb-6" target="Kvdl1e2YpWBnPpMMYwDb-10" edge="1">
          <mxGeometry relative="1" as="geometry" />
        </mxCell>
        <mxCell id="Kvdl1e2YpWBnPpMMYwDb-6" value="&lt;font style=&quot;font-size: 21px;&quot;&gt;&lt;b style=&quot;&quot;&gt;Enhanced Images&lt;/b&gt;&lt;/font&gt;" style="text;html=1;align=center;verticalAlign=middle;whiteSpace=wrap;rounded=0;" parent="1" vertex="1">
          <mxGeometry x="522" y="465" width="185" height="30" as="geometry" />
        </mxCell>
        <mxCell id="Kvdl1e2YpWBnPpMMYwDb-10" value="Compare Images" style="rounded=0;whiteSpace=wrap;html=1;fillColor=#60a917;fontColor=#ffffff;strokeColor=#2D7600;fontStyle=1;fontSize=20;" parent="1" vertex="1">
          <mxGeometry x="15" y="305" width="190" height="180" as="geometry" />
        </mxCell>
        <mxCell id="Kvdl1e2YpWBnPpMMYwDb-12" style="edgeStyle=orthogonalEdgeStyle;rounded=0;orthogonalLoop=1;jettySize=auto;html=1;exitX=0.5;exitY=1;exitDx=0;exitDy=0;entryX=1.004;entryY=0.175;entryDx=0;entryDy=0;entryPerimeter=0;" parent="1" source="Kvdl1e2YpWBnPpMMYwDb-2" target="Kvdl1e2YpWBnPpMMYwDb-10" edge="1">
          <mxGeometry relative="1" as="geometry">
            <Array as="points">
              <mxPoint x="901" y="336" />
            </Array>
          </mxGeometry>
        </mxCell>
      </root>
    </mxGraphModel>
  </diagram>
</mxfile>
